<svg fill="#fff" xmlns="http://www.w3.org/2000/svg" viewBox="0 0 512 512"><path d="M391.264 0c-33.149 0-60.117 26.969-60.117 60.117v38.146a59.724 59.724 0 00-30.059-8.088c-17.943 0-34.064 7.911-45.088 20.417-11.025-12.505-27.145-20.417-45.088-20.417a59.73 59.73 0 00-30.059 8.088V60.117C180.853 26.969 153.885 0 120.736 0S60.618 26.969 60.618 60.117v286.56C60.618 437.836 134.782 512 225.941 512h60.117c91.159 0 165.323-74.164 165.323-165.323V60.117C451.382 26.969 424.413 0 391.264 0zM271.029 150.294c0-16.574 13.484-30.059 30.059-30.059 16.574 0 30.059 13.484 30.059 30.059v69.207a59.724 59.724 0 00-30.059-8.088h-30.059v-61.119zm-90.176 0c0-16.574 13.484-30.059 30.059-30.059 16.574 0 30.059 13.484 30.059 30.059v61.119h-60.117v-61.119zM90.677 60.117c0-16.574 13.484-30.059 30.059-30.059 16.574 0 30.059 13.484 30.059 30.059v152.374c-23.394 3.361-44.323 14.445-60.117 30.58V60.117zm330.646 286.56c0 74.585-60.68 135.264-135.264 135.264h-60.117c-74.585 0-135.264-60.68-135.264-135.264v-30.059c0-41.436 33.711-75.147 75.147-75.147h135.264c16.574 0 30.059 13.484 30.059 30.059s-13.484 30.059-30.059 30.059H165.824c-8.3 0-15.029 6.729-15.029 15.029s6.729 15.029 15.029 15.029c58.01 0 105.205 47.195 105.205 105.205 0 8.3 6.729 15.029 15.029 15.029s15.029-6.729 15.029-15.029c0-42.45-19.661-80.388-50.349-105.205h50.349c33.149 0 60.117-26.969 60.117-60.117V60.117c0-16.574 13.484-30.059 30.059-30.059 16.574 0 30.059 13.484 30.059 30.059v286.56z"/></svg>