<svg fill="#fff" xmlns="http://www.w3.org/2000/svg" height="512" width="512"><path d="M256 332c53.762 0 97.5-43.738 97.5-97.5v-137C353.5 43.738 309.762 0 256 0s-97.5 43.738-97.5 97.5v137c0 53.762 43.738 97.5 97.5 97.5zM188.5 97.5c0-37.22 30.28-67.5 67.5-67.5s67.5 30.28 67.5 67.5v137c0 37.22-30.28 67.5-67.5 67.5s-67.5-30.28-67.5-67.5z"/><path d="M368.5 422h-60v-39.009c61.11-21.67 105-80.047 105-148.491V166h-30v68.5c0 70.304-57.196 127.5-127.5 127.5s-127.5-57.196-127.5-127.5V166h-30v68.5c0 68.444 43.89 126.821 105 148.491V422h-60c-41.355 0-75 33.645-75 75v15h375v-15c0-41.355-33.645-75-75-75zm-135-31.614c7.351 1.056 14.861 1.614 22.5 1.614s15.149-.558 22.5-1.614V422h-45zM101.07 482c6.19-17.461 22.873-30 42.43-30h225c19.557 0 36.239 12.539 42.43 30z"/></svg>