<svg xmlns="http://www.w3.org/2000/svg" width="487.02" height="487.021"><path fill="#fff" d="M261.495 468.783c1.141 6.289 3.936 12.034 7.979 17.022-71.827 6.679-135.196-14.304-188.564-63.121-45-41.156-70.348-92.763-77.214-153.278C-10.691 142.618 80.306 23.448 206.158 4.129 218.414 2.246 230.814 1.351 243.15 0h2.622c13.21 1.374 26.562 1.959 39.607 4.229 65.456 11.41 117.873 44.168 157.066 97.74 22.243 30.426 36.617 64.282 42.375 101.101l-69.8 11.32c-1.513-.503-3.191-.97-5.296-1.428-12.135-2.651-16.006-8.112-12.602-20.058 2.275-7.965 6.023-15.531 9.434-23.147 3.559-7.947 5.935-15.778 4.108-24.804-1.638-8.11-1.39-16.385 6.028-23.194-6.909-7.861-13.299-15.475-20.108-22.686-3.215-3.393-5.904-2.16-6.897 2.604-.242 1.167-.201 2.397-.474 3.559-2.506 10.619-9.055 13.051-17.619 6.561-1.431-1.087-2.684-2.624-4.285-3.188-2.695-.943-5.758-2.148-8.405-1.699-9.209 1.561-10.729.458-9.9-8.668.585-6.44-1.679-8.878-8.057-8.583-2.188.109-4.368.556-6.55.606-6.903.109-11.224-5.122-9.521-11.798.881-3.449 2.79-6.635 3.617-10.083.627-2.565 1.425-6.549.118-7.838-5.272-5.175-10.952-10.169-17.183-14.091-11.225-7.081-22.573-1.9-33.732.721-1.2 9.114-2.453 10.344-11.143 7.764-10.338-3.085-20.167-7.4-27.216-16.287-.883-1.126-3.002-1.995-4.412-1.844-10.672 1.214-21.317 2.615-31.921 4.265-1.525.248-3.916 2.296-3.893 3.475.036 2.045 1.386 5.568 2.657 5.792 3.443.606 7.438.594 10.645-.635 4.389-1.7 8.119-5.024 12.386-7.143 5.169-2.565 8.901-.671 10.373 4.909 1.75 6.611-.611 12.214-5.999 15.652-7.341 4.667-15.392 8.228-22.993 12.507-5.337 2.988-10.811 5.943-15.548 9.75-3.81 3.062-6.46 7.814-3.434 12.699 2.811 4.54 7.802 3.473 11.943 2.007 4.25-1.498 8.275-3.721 12.232-5.929 2.415-1.351 4.401-3.452 6.768-4.896 4.72-2.876 7.232-1.9 9.035 3.224 3.026 8.621 8.795 10.616 16.512 5.619 3.337-2.161 6.339-4.897 9.82-6.774 5.131-2.766 10.634.174 11.131 5.568.727 7.899 2.564 9.437 10.396 8.559 4.622-.521 9.227-1.203 13.837-1.82.408.47.81.931 1.218 1.403-1.607 3.003-2.541 6.821-4.977 8.819-3.76 3.062-8.388 5.222-12.915 7.151-6.579 2.805-12.495 4.492-12.714 4.874 0 0 9.232 3.735 4.361 5.121-8.026 2.27-20.176 15.282-2.725 9.883 3.127-.957 6.324-1.726 10.723-2.917-3.671 11.039-11.432 15.38-19.109 19.497-22.979 12.291-23.792 41.75-12.062 56.87 2.545 3.287 4.667 6.972 6.476 10.72 2.086 4.314 1.938 9.489-2.205 11.759-2.787 1.525-8.39 1.203-10.873-.697-6.041-4.622-11.511-10.246-16.264-16.246-6.041-7.601-10.385-16.63-16.778-23.876-20.652-23.38-43.961-18.229-63.916-.63-5.048 4.457-4.383 8.488 1.188 12.153 1.977 1.292 4.143 2.379 6.348 3.263 8.86 3.585 17.783 6.999 26.643 10.569 1.823.732 3.694 1.587 5.208 2.801 3.067 2.471 3.236 5.11-.771 6.703-2.929 1.156-6.07 1.856-9.168 2.53-5.816 1.265-11.978 1.619-17.401 3.818-3.147 1.276-6.756 5.175-7.173 8.284-.357 2.659 3.171 6.289 5.701 8.735 1.889 1.81 5.072 2.199 7.427 3.642 3.274 1.986 6.803 3.925 9.351 6.685 4.309 4.664 7.353 5.828 12.942 2.701 5.379-3.003 10.56-6.348 15.755-9.67 6.153-3.925 7.317-3.44 10.87 2.861 4.412 7.837 10.495 14.292 20.371 12.542 7.058-1.265 13.755-4.516 20.623-6.832 4.681-1.584 9.292-3.89 14.097-4.457 9.836-1.177 17.372 7.146 17.928 18.666.55 11.526-4.788 20.156-12.921 27.65-7.979 7.342-12.271 15.734-8.601 27.143 3.901 12.129-.254 22.543-9.533 30.605-6.435 5.604-13.554 10.463-20.653 15.238-8.316 5.586-22.159 36.191-19.109 46.973.582 2.021.75 2.293.6 4.475-.792 11.49-6.688 9.469-16.952 11.266-5.799 1.017-5.231-11.266-6.555-16.881-1.277-5.391-1.271-11.384-.431-16.904.824-5.421 3.372-10.581 5.23-15.83 3.881-10.999 1.07-20.362-7.01-28.348-3.535-3.499-7.409-6.667-11.039-10.072-13.208-12.354-19.618-27.887-20.312-45.678-.352-8.961 4.049-13.039 12.927-13.879 1.859-.177 3.709-.426 5.574-.638-1.041-7.442-3.771-10.268-11.05-10.729-6.918-.419-10.944-4.327-13.606-10.019-1.241-2.66-1.466-5.781-2.512-8.547-2.5-6.597-4.255-13.761-8.136-19.459-3.496-5.136-6.36-9.566-6.227-16.092.059-3.05-2.131-6.596-4.256-9.126-4.812-5.71-10.143-10.994-15.416-16.302-2.072-2.081-4.551-3.759-7.971-6.525-.236 5.225-.242 8.609-.57 11.942-.473 4.729-.526 9.661-2.039 14.056-.842 2.456-4.442 5.73-6.508 5.53-2.625-.249-6.422-3.224-7.111-5.742-1.265-4.614-1.604-9.957-.629-14.647 4.569-22.015 6.508-44.106 3.939-66.493-.937-8.204-2.075-16.373-3.23-25.464-42.98 50.561-63.573 142.423-21.294 223.613 39.227 75.327 117.137 118.269 198.998 112.932a42.747 42.747 0 00.847 14.372zm72.607-41.695c-7.908-2.766-17.307-3.25-26.936-.869-21.385 5.361-35.382 22.97-31.273 39.366 2.394 15.196 24.76 25.352 46.092 19.984 18.796-4.646 31.883-18.891 31.983-33.384h.018l.509-153.125 110.442-20.19v123.085c-8.033-2.837-17.649-3.333-27.391-.916-21.604 5.421-35.736 23.194-31.599 39.786 4.137 16.55 24.99 25.593 46.588 20.244 19.677-4.972 32.285-18.466 32.285-35.382V221.391l-150.725 24.438v181.26h.007z"/></svg>