<svg fill="#fff" xmlns="http://www.w3.org/2000/svg" height="512" width="512"><path d="M54 262h404c5.522 0 10-4.477 10-10v-44c0-5.523-4.478-10-10-10H54c-5.522 0-10 4.477-10 10v44c0 5.523 4.478 10 10 10zm192-20h-81v-24h81zm20-24h81v24h-81zm182 24h-81v-24h81zM64 218h81v24H64zm46 64c-38.598 0-70 31.402-70 70s31.402 70 70 70 70-31.402 70-70-31.402-70-70-70zm0 120c-27.57 0-50-22.43-50-50s22.43-50 50-50 50 22.43 50 50-22.43 50-50 50z"/><path d="M110 322c-16.542 0-30 13.458-30 30s13.458 30 30 30 30-13.458 30-30-13.458-30-30-30zm0 40c-5.514 0-10-4.486-10-10s4.486-10 10-10 10 4.486 10 10-4.486 10-10 10zm292-80c-38.598 0-70 31.402-70 70s31.402 70 70 70 70-31.402 70-70-31.402-70-70-70zm0 120c-27.57 0-50-22.43-50-50s22.43-50 50-50 50 22.43 50 50-22.43 50-50 50z"/><path d="M402 322c-16.542 0-30 13.458-30 30s13.458 30 30 30 30-13.458 30-30-13.458-30-30-30zm0 40c-5.514 0-10-4.486-10-10s4.486-10 10-10 10 4.486 10 10-4.486 10-10 10zm-100-72.333h-92c-5.522 0-10 4.477-10 10v88c0 5.523 4.478 10 10 10h92c5.522 0 10-4.477 10-10v-88c0-5.523-4.478-10-10-10zm-10 20v24h-72v-24zm-72 68v-24h72v24z"/><path d="M458 148.153V90c0-27.57-22.43-50-50-50H104c-27.57 0-50 22.43-50 50v58.153C23.879 150.217 0 175.364 0 206v208c0 31.981 26.019 58 58 58h396c31.981 0 58-26.019 58-58V206c0-30.636-23.879-55.783-54-57.847zM104 60h304c16.542 0 30 13.458 30 30v58h-24V94c0-5.523-4.478-10-10-10H108c-5.522 0-10 4.477-10 10v54H74V90c0-16.542 13.458-30 30-30zm388 354c0 20.953-17.047 38-38 38H58c-20.953 0-38-17.047-38-38V206c0-20.953 17.047-38 38-38h153.131c5.522 0 10-4.477 10-10s-4.478-10-10-10H118v-44h276v44h-92.865c-5.522 0-10 4.477-10 10s4.478 10 10 10H454c20.953 0 38 17.047 38 38z"/><path d="M256.13 168c2.63 0 5.21-1.07 7.07-2.93 1.859-1.86 2.93-4.44 2.93-7.07s-1.07-5.21-2.93-7.07-4.44-2.93-7.07-2.93c-2.64 0-5.22 1.07-7.07 2.93-1.859 1.86-2.93 4.44-2.93 7.07s1.07 5.21 2.93 7.07a10.04 10.04 0 007.07 2.93z"/></svg>